<svg xmlns="http://www.w3.org/2000/svg" xmlns:xlink="http://www.w3.org/1999/xlink" width="200" zoomAndPan="magnify" viewBox="0 0 150 30.000001" height="40" preserveAspectRatio="xMidYMid meet" version="1.0"><defs><g/><clipPath id="dc6e4cd948"><path d="M 4.160156 5.382812 L 25.933594 5.382812 L 25.933594 23.527344 L 4.160156 23.527344 Z M 4.160156 5.382812 " clip-rule="nonzero"/></clipPath><clipPath id="17e0c2b62c"><path d="M 119.417969 5.382812 L 123.046875 5.382812 L 123.046875 9.011719 L 119.417969 9.011719 Z M 119.417969 5.382812 " clip-rule="nonzero"/></clipPath></defs><g fill="#ffffff" fill-opacity="1"><g transform="translate(26.953965, 22.162988)"><g><path d="M 12.75 0 L 12.75 -7.125 C 12.75 -8.132812 12.523438 -8.894531 12.078125 -9.40625 C 11.640625 -9.925781 10.941406 -10.1875 9.984375 -10.1875 C 9.367188 -10.1875 8.773438 -10.046875 8.203125 -9.765625 C 7.628906 -9.492188 7.125 -9.117188 6.6875 -8.640625 C 6.25 -8.160156 5.894531 -7.597656 5.625 -6.953125 C 5.363281 -6.316406 5.234375 -5.632812 5.234375 -4.90625 L 5.234375 0 L 2.3125 0 L 2.3125 -17.09375 L 5.234375 -17.09375 L 5.234375 -8.921875 C 5.953125 -10.160156 6.835938 -11.039062 7.890625 -11.5625 C 8.941406 -12.082031 10.070312 -12.34375 11.28125 -12.34375 C 11.988281 -12.34375 12.617188 -12.222656 13.171875 -11.984375 C 13.734375 -11.742188 14.207031 -11.410156 14.59375 -10.984375 C 14.988281 -10.554688 15.289062 -10.050781 15.5 -9.46875 C 15.71875 -8.882812 15.828125 -8.25 15.828125 -7.5625 L 15.828125 0 Z M 12.75 0 "/></g></g></g><g fill="#ffffff" fill-opacity="1"><g transform="translate(41.831377, 22.162988)"><g><path d="M 15.1875 0.203125 C 14.789062 0.203125 14.421875 0.164062 14.078125 0.09375 C 13.742188 0.03125 13.441406 -0.09375 13.171875 -0.28125 C 12.910156 -0.46875 12.707031 -0.710938 12.5625 -1.015625 C 12.414062 -1.328125 12.359375 -1.734375 12.390625 -2.234375 C 11.691406 -1.429688 10.835938 -0.820312 9.828125 -0.40625 C 8.816406 0 7.722656 0.203125 6.546875 0.203125 C 5.773438 0.203125 5.070312 0.128906 4.4375 -0.015625 C 3.800781 -0.171875 3.253906 -0.40625 2.796875 -0.71875 C 2.347656 -1.03125 1.992188 -1.410156 1.734375 -1.859375 C 1.484375 -2.316406 1.359375 -2.832031 1.359375 -3.40625 L 1.359375 -3.515625 C 1.359375 -4.285156 1.625 -4.945312 2.15625 -5.5 C 2.695312 -6.0625 3.429688 -6.484375 4.359375 -6.765625 C 5.296875 -7.054688 6.390625 -7.195312 7.640625 -7.1875 C 8.890625 -7.1875 10.222656 -7 11.640625 -6.625 L 11.640625 -7.421875 C 11.640625 -8.285156 11.34375 -8.960938 10.75 -9.453125 C 10.164062 -9.941406 9.269531 -10.1875 8.0625 -10.1875 C 7.238281 -10.1875 6.46875 -10.050781 5.75 -9.78125 C 5.03125 -9.519531 4.320312 -9.164062 3.625 -8.71875 L 2.359375 -10.4375 C 3.179688 -11.039062 4.054688 -11.515625 4.984375 -11.859375 C 5.921875 -12.210938 6.988281 -12.390625 8.1875 -12.390625 C 9.3125 -12.390625 10.28125 -12.253906 11.09375 -11.984375 C 11.90625 -11.722656 12.566406 -11.347656 13.078125 -10.859375 C 13.597656 -10.378906 13.976562 -9.789062 14.21875 -9.09375 C 14.457031 -8.40625 14.578125 -7.625 14.578125 -6.75 L 14.578125 -2.90625 C 14.578125 -2.457031 14.691406 -2.164062 14.921875 -2.03125 C 15.148438 -1.894531 15.613281 -1.828125 16.3125 -1.828125 L 16.3125 0.203125 Z M 11.640625 -4.875 C 10.484375 -5.195312 9.597656 -5.375 8.984375 -5.40625 C 8.378906 -5.445312 7.941406 -5.46875 7.671875 -5.46875 C 7.160156 -5.46875 6.644531 -5.410156 6.125 -5.296875 C 5.613281 -5.179688 5.195312 -4.96875 4.875 -4.65625 C 4.550781 -4.351562 4.390625 -3.988281 4.390625 -3.5625 L 4.390625 -3.46875 C 4.390625 -3.039062 4.640625 -2.675781 5.140625 -2.375 C 5.648438 -2.070312 6.3125 -1.921875 7.125 -1.921875 C 7.601562 -1.921875 8.113281 -1.988281 8.65625 -2.125 C 9.195312 -2.257812 9.6875 -2.445312 10.125 -2.6875 C 10.5625 -2.925781 10.921875 -3.21875 11.203125 -3.5625 C 11.492188 -3.90625 11.640625 -4.28125 11.640625 -4.6875 Z M 11.640625 -4.875 "/></g></g></g><g fill="#ffffff" fill-opacity="1"><g transform="translate(55.631376, 22.162988)"><g><path d="M 11.0625 -9.46875 C 10.101562 -9.632812 9.265625 -9.679688 8.546875 -9.609375 C 7.835938 -9.535156 7.242188 -9.367188 6.765625 -9.109375 C 6.296875 -8.847656 5.941406 -8.515625 5.703125 -8.109375 C 5.472656 -7.710938 5.359375 -7.285156 5.359375 -6.828125 L 5.359375 0 L 2.3125 0 L 2.3125 -12 L 5.109375 -12 L 5.109375 -8.90625 C 5.410156 -9.570312 5.738281 -10.125 6.09375 -10.5625 C 6.445312 -11 6.851562 -11.335938 7.3125 -11.578125 C 7.769531 -11.816406 8.300781 -11.972656 8.90625 -12.046875 C 9.519531 -12.117188 10.238281 -12.128906 11.0625 -12.078125 Z M 11.0625 -9.46875 "/></g></g></g><g fill="#ffffff" fill-opacity="1"><g transform="translate(64.326498, 22.162988)"><g><path d="M 20.96875 0 L 20.96875 -7.125 C 20.96875 -8.125 20.8125 -8.882812 20.5 -9.40625 C 20.1875 -9.925781 19.585938 -10.1875 18.703125 -10.1875 C 18.109375 -10.1875 17.566406 -10.015625 17.078125 -9.671875 C 16.585938 -9.328125 16.164062 -8.890625 15.8125 -8.359375 C 15.46875 -7.828125 15.195312 -7.238281 15 -6.59375 C 14.800781 -5.945312 14.703125 -5.320312 14.703125 -4.71875 L 14.703125 0 L 11.640625 0 L 11.640625 -7.125 C 11.640625 -8.125 11.484375 -8.882812 11.171875 -9.40625 C 10.867188 -9.925781 10.265625 -10.1875 9.359375 -10.1875 C 8.785156 -10.1875 8.253906 -10.015625 7.765625 -9.671875 C 7.273438 -9.328125 6.851562 -8.890625 6.5 -8.359375 C 6.15625 -7.828125 5.882812 -7.238281 5.6875 -6.59375 C 5.488281 -5.945312 5.390625 -5.320312 5.390625 -4.71875 L 5.390625 0 L 2.3125 0 L 2.3125 -12 L 5.125 -12 L 5.125 -8.234375 C 5.519531 -9.003906 5.929688 -9.65625 6.359375 -10.1875 C 6.785156 -10.71875 7.226562 -11.140625 7.6875 -11.453125 C 8.15625 -11.773438 8.644531 -12.003906 9.15625 -12.140625 C 9.664062 -12.273438 10.195312 -12.34375 10.75 -12.34375 C 11.257812 -12.34375 11.738281 -12.238281 12.1875 -12.03125 C 12.632812 -11.820312 13.023438 -11.539062 13.359375 -11.1875 C 13.691406 -10.84375 13.96875 -10.441406 14.1875 -9.984375 C 14.40625 -9.535156 14.550781 -9.0625 14.625 -8.5625 C 15.34375 -9.882812 16.144531 -10.84375 17.03125 -11.4375 C 17.925781 -12.039062 18.953125 -12.34375 20.109375 -12.34375 C 20.796875 -12.34375 21.382812 -12.21875 21.875 -11.96875 C 22.375 -11.71875 22.78125 -11.375 23.09375 -10.9375 C 23.414062 -10.5 23.65625 -9.988281 23.8125 -9.40625 C 23.96875 -8.832031 24.046875 -8.21875 24.046875 -7.5625 L 24.046875 0 Z M 20.96875 0 "/></g></g></g><g fill="#ffffff" fill-opacity="1"><g transform="translate(87.412757, 22.162988)"><g><path d="M 16.234375 -5.90625 C 16.234375 -5 16.03125 -4.164062 15.625 -3.40625 C 15.21875 -2.65625 14.664062 -2.007812 13.96875 -1.46875 C 13.28125 -0.9375 12.484375 -0.523438 11.578125 -0.234375 C 10.679688 0.0546875 9.75 0.203125 8.78125 0.203125 C 7.800781 0.203125 6.863281 0.0546875 5.96875 -0.234375 C 5.070312 -0.523438 4.273438 -0.9375 3.578125 -1.46875 C 2.890625 -2.007812 2.335938 -2.65625 1.921875 -3.40625 C 1.515625 -4.164062 1.3125 -5 1.3125 -5.90625 L 1.3125 -6.28125 C 1.3125 -7.1875 1.515625 -8.015625 1.921875 -8.765625 C 2.335938 -9.523438 2.890625 -10.171875 3.578125 -10.703125 C 4.273438 -11.242188 5.070312 -11.660156 5.96875 -11.953125 C 6.863281 -12.242188 7.800781 -12.390625 8.78125 -12.390625 C 9.75 -12.390625 10.679688 -12.242188 11.578125 -11.953125 C 12.484375 -11.660156 13.28125 -11.242188 13.96875 -10.703125 C 14.664062 -10.171875 15.21875 -9.523438 15.625 -8.765625 C 16.03125 -8.015625 16.234375 -7.1875 16.234375 -6.28125 Z M 13.1875 -6.203125 C 13.1875 -6.773438 13.085938 -7.3125 12.890625 -7.8125 C 12.691406 -8.3125 12.398438 -8.742188 12.015625 -9.109375 C 11.628906 -9.484375 11.160156 -9.773438 10.609375 -9.984375 C 10.066406 -10.203125 9.457031 -10.3125 8.78125 -10.3125 C 8.070312 -10.3125 7.441406 -10.203125 6.890625 -9.984375 C 6.347656 -9.773438 5.890625 -9.484375 5.515625 -9.109375 C 5.140625 -8.742188 4.851562 -8.3125 4.65625 -7.8125 C 4.457031 -7.3125 4.359375 -6.773438 4.359375 -6.203125 L 4.359375 -5.984375 C 4.359375 -5.410156 4.457031 -4.875 4.65625 -4.375 C 4.851562 -3.875 5.140625 -3.4375 5.515625 -3.0625 C 5.890625 -2.695312 6.347656 -2.40625 6.890625 -2.1875 C 7.441406 -1.976562 8.070312 -1.875 8.78125 -1.875 C 9.457031 -1.875 10.066406 -1.976562 10.609375 -2.1875 C 11.160156 -2.40625 11.628906 -2.695312 12.015625 -3.0625 C 12.398438 -3.4375 12.691406 -3.875 12.890625 -4.375 C 13.085938 -4.875 13.1875 -5.410156 13.1875 -5.984375 Z M 13.1875 -6.203125 "/></g></g></g><g fill="#ffffff" fill-opacity="1"><g transform="translate(101.905375, 22.162988)"><g><path d="M 13.265625 0 L 13.265625 -7.125 C 13.265625 -8.132812 13.035156 -8.894531 12.578125 -9.40625 C 12.128906 -9.925781 11.390625 -10.1875 10.359375 -10.1875 C 9.785156 -10.1875 9.203125 -10.035156 8.609375 -9.734375 C 8.015625 -9.429688 7.476562 -9.03125 7 -8.53125 C 6.519531 -8.039062 6.128906 -7.460938 5.828125 -6.796875 C 5.535156 -6.128906 5.390625 -5.4375 5.390625 -4.71875 L 5.390625 0 L 2.3125 0 L 2.3125 -12 L 5.125 -12 L 5.125 -7.921875 C 5.914062 -9.484375 6.863281 -10.609375 7.96875 -11.296875 C 9.082031 -11.992188 10.316406 -12.34375 11.671875 -12.34375 C 12.410156 -12.34375 13.066406 -12.222656 13.640625 -11.984375 C 14.222656 -11.742188 14.710938 -11.410156 15.109375 -10.984375 C 15.503906 -10.554688 15.804688 -10.050781 16.015625 -9.46875 C 16.234375 -8.882812 16.34375 -8.25 16.34375 -7.5625 L 16.34375 0 Z M 13.265625 0 "/></g></g></g><g fill="#ffffff" fill-opacity="1"><g transform="translate(117.295836, 22.162988)"><g><path d="M 2.390625 -14.078125 L 2.390625 -16.515625 L 5.3125 -16.515625 L 5.3125 -14.078125 Z M 2.3125 0 L 2.3125 -12 L 5.390625 -12 L 5.390625 0 Z M 2.3125 0 "/></g></g></g><g fill="#ffffff" fill-opacity="1"><g transform="translate(121.937836, 22.162988)"><g><path d="M 5.40625 -2.234375 L 14.515625 -2.234375 L 14.515625 0 L 1.203125 0 L 1.203125 -1.40625 L 10.46875 -9.78125 L 1.40625 -9.78125 L 1.40625 -12 L 14.703125 -12 L 14.703125 -10.59375 Z M 5.40625 -2.234375 "/></g></g></g><g fill="#ffffff" fill-opacity="1"><g transform="translate(134.942603, 22.162988)"><g><path d="M 11.0625 -9.46875 C 10.101562 -9.632812 9.265625 -9.679688 8.546875 -9.609375 C 7.835938 -9.535156 7.242188 -9.367188 6.765625 -9.109375 C 6.296875 -8.847656 5.941406 -8.515625 5.703125 -8.109375 C 5.472656 -7.710938 5.359375 -7.285156 5.359375 -6.828125 L 5.359375 0 L 2.3125 0 L 2.3125 -12 L 5.109375 -12 L 5.109375 -8.90625 C 5.410156 -9.570312 5.738281 -10.125 6.09375 -10.5625 C 6.445312 -11 6.851562 -11.335938 7.3125 -11.578125 C 7.769531 -11.816406 8.300781 -11.972656 8.90625 -12.046875 C 9.519531 -12.117188 10.238281 -12.128906 11.0625 -12.078125 Z M 11.0625 -9.46875 "/></g></g></g><g clip-path="url(#dc6e4cd948)"><path fill="#1db954" d="M 11.765625 15.683594 L 11.765625 21.152344 C 11.765625 21.429688 11.539062 21.660156 11.257812 21.660156 C 10.976562 21.660156 10.75 21.433594 10.75 21.152344 L 10.75 15.683594 C 10.75 15.40625 10.976562 15.175781 11.257812 15.175781 C 11.539062 15.175781 11.765625 15.402344 11.765625 15.683594 Z M 20.535156 16.414062 C 20.257812 16.414062 20.027344 16.644531 20.027344 16.921875 L 20.027344 19.910156 C 20.027344 20.191406 20.257812 20.421875 20.535156 20.421875 C 20.816406 20.421875 21.046875 20.191406 21.046875 19.910156 L 21.046875 16.921875 C 21.046875 16.644531 20.816406 16.414062 20.535156 16.414062 Z M 13.113281 15.898438 C 12.832031 15.898438 12.605469 16.125 12.605469 16.40625 L 12.605469 20.429688 C 12.605469 20.710938 12.832031 20.9375 13.113281 20.9375 C 13.394531 20.9375 13.621094 20.710938 13.621094 20.429688 L 13.621094 16.40625 C 13.621094 16.125 13.394531 15.898438 13.113281 15.898438 Z M 9.402344 16.414062 C 9.121094 16.414062 8.894531 16.644531 8.894531 16.921875 L 8.894531 19.910156 C 8.894531 20.191406 9.121094 20.421875 9.402344 20.421875 C 9.683594 20.421875 9.910156 20.191406 9.910156 19.910156 L 9.910156 16.921875 C 9.910156 16.644531 9.683594 16.414062 9.402344 16.414062 Z M 14.96875 13.195312 C 14.6875 13.195312 14.460938 13.421875 14.460938 13.703125 L 14.460938 23.132812 C 14.460938 23.414062 14.6875 23.640625 14.96875 23.640625 C 15.25 23.640625 15.476562 23.414062 15.476562 23.132812 L 15.476562 13.703125 C 15.476562 13.421875 15.25 13.195312 14.96875 13.195312 Z M 16.824219 16.097656 C 16.546875 16.097656 16.316406 16.324219 16.316406 16.605469 L 16.316406 20.230469 C 16.316406 20.511719 16.542969 20.738281 16.824219 20.738281 C 17.105469 20.738281 17.332031 20.511719 17.332031 20.230469 L 17.332031 16.605469 C 17.332031 16.324219 17.105469 16.097656 16.824219 16.097656 Z M 18.679688 15.667969 C 18.402344 15.667969 18.171875 15.894531 18.171875 16.175781 L 18.171875 21.152344 C 18.171875 21.429688 18.398438 21.660156 18.679688 21.660156 C 18.960938 21.660156 19.1875 21.433594 19.1875 21.152344 L 19.1875 16.175781 C 19.1875 15.894531 18.960938 15.667969 18.679688 15.667969 Z M 23.746094 14.332031 L 23.746094 14.160156 C 23.746094 9.320312 19.808594 5.382812 14.96875 5.382812 C 10.128906 5.382812 6.191406 9.320312 6.191406 14.160156 L 6.191406 14.332031 C 5.0625 14.40625 4.167969 15.347656 4.167969 16.492188 L 4.167969 19.535156 C 4.167969 20.734375 5.144531 21.707031 6.339844 21.707031 L 6.691406 21.707031 C 6.96875 21.707031 7.191406 21.480469 7.191406 21.207031 L 7.191406 14.160156 C 7.191406 9.871094 10.679688 6.382812 14.96875 6.382812 C 19.257812 6.382812 22.746094 9.871094 22.746094 14.160156 L 22.746094 21.207031 C 22.746094 21.480469 22.972656 21.707031 23.246094 21.707031 L 23.601562 21.707031 C 24.796875 21.707031 25.769531 20.734375 25.769531 19.539062 L 25.769531 16.496094 C 25.769531 15.347656 24.875 14.40625 23.746094 14.332031 Z M 23.746094 14.332031 " fill-opacity="1" fill-rule="nonzero"/></g><g clip-path="url(#17e0c2b62c)"><path fill="#1db954" d="M 119.417969 5.382812 L 123.046875 5.382812 L 123.046875 9.011719 L 119.417969 9.011719 Z M 119.417969 5.382812 " fill-opacity="1" fill-rule="nonzero"/></g></svg>